<mxfile host="Electron" agent="Mozilla/5.0 (Windows NT 10.0; Win64; x64) AppleWebKit/537.36 (KHTML, like Gecko) draw.io/24.7.17 Chrome/128.0.6613.36 Electron/32.0.1 Safari/537.36" version="24.7.17">
  <diagram id="R2lEEEUBdFMjLlhIrx00" name="Page-1">
    <mxGraphModel dx="756" dy="650" grid="1" gridSize="10" guides="1" tooltips="1" connect="1" arrows="1" fold="1" page="1" pageScale="1" pageWidth="850" pageHeight="1100" math="0" shadow="0" extFonts="Permanent Marker^https://fonts.googleapis.com/css?family=Permanent+Marker">
      <root>
        <mxCell id="0" />
        <mxCell id="1" parent="0" />
        <mxCell id="02UZKBBRo3uHq8SsgGu7-1" value="Authorized user" style="shape=umlActor;verticalLabelPosition=bottom;verticalAlign=top;html=1;outlineConnect=0;" vertex="1" parent="1">
          <mxGeometry x="410" y="530" width="30" height="60" as="geometry" />
        </mxCell>
        <mxCell id="02UZKBBRo3uHq8SsgGu7-2" value="Guest user" style="shape=umlActor;verticalLabelPosition=bottom;verticalAlign=top;html=1;outlineConnect=0;" vertex="1" parent="1">
          <mxGeometry x="410" y="433.33" width="30" height="60" as="geometry" />
        </mxCell>
        <mxCell id="02UZKBBRo3uHq8SsgGu7-4" value="" style="swimlane;startSize=0;" vertex="1" parent="1">
          <mxGeometry x="120" y="430" width="200" height="200" as="geometry">
            <mxRectangle x="120" y="430" width="50" height="40" as="alternateBounds" />
          </mxGeometry>
        </mxCell>
        <mxCell id="02UZKBBRo3uHq8SsgGu7-5" value="Аккаунт" style="text;html=1;align=center;verticalAlign=middle;resizable=0;points=[];autosize=1;strokeColor=none;fillColor=none;" vertex="1" parent="02UZKBBRo3uHq8SsgGu7-4">
          <mxGeometry y="20" width="70" height="30" as="geometry" />
        </mxCell>
        <mxCell id="02UZKBBRo3uHq8SsgGu7-6" value="Вход" style="ellipse;whiteSpace=wrap;html=1;" vertex="1" parent="02UZKBBRo3uHq8SsgGu7-4">
          <mxGeometry x="80" y="140" width="80" height="53.33" as="geometry" />
        </mxCell>
        <mxCell id="02UZKBBRo3uHq8SsgGu7-7" value="Выход" style="ellipse;whiteSpace=wrap;html=1;" vertex="1" parent="02UZKBBRo3uHq8SsgGu7-4">
          <mxGeometry x="80" y="73.34" width="80" height="53.33" as="geometry" />
        </mxCell>
        <mxCell id="02UZKBBRo3uHq8SsgGu7-8" value="Регистрация" style="ellipse;whiteSpace=wrap;html=1;" vertex="1" parent="02UZKBBRo3uHq8SsgGu7-4">
          <mxGeometry x="80" y="6.6699999999999875" width="80" height="53.33" as="geometry" />
        </mxCell>
        <mxCell id="02UZKBBRo3uHq8SsgGu7-14" value="" style="swimlane;startSize=0;" vertex="1" parent="1">
          <mxGeometry x="520" y="455" width="320" height="150" as="geometry">
            <mxRectangle x="120" y="430" width="50" height="40" as="alternateBounds" />
          </mxGeometry>
        </mxCell>
        <mxCell id="02UZKBBRo3uHq8SsgGu7-15" value="Словарь" style="text;html=1;align=center;verticalAlign=middle;resizable=0;points=[];autosize=1;strokeColor=none;fillColor=none;" vertex="1" parent="02UZKBBRo3uHq8SsgGu7-14">
          <mxGeometry x="250" width="70" height="30" as="geometry" />
        </mxCell>
        <mxCell id="02UZKBBRo3uHq8SsgGu7-16" value="Просмотр словаря" style="ellipse;whiteSpace=wrap;html=1;" vertex="1" parent="02UZKBBRo3uHq8SsgGu7-14">
          <mxGeometry x="26" y="6.660000000000004" width="80" height="53.33" as="geometry" />
        </mxCell>
        <mxCell id="02UZKBBRo3uHq8SsgGu7-17" value="Поиск конкретного слова" style="ellipse;whiteSpace=wrap;html=1;" vertex="1" parent="02UZKBBRo3uHq8SsgGu7-14">
          <mxGeometry x="33" y="67" width="80" height="53.33" as="geometry" />
        </mxCell>
        <mxCell id="02UZKBBRo3uHq8SsgGu7-19" value="Добавление слова в &quot;Мой словарь&quot;" style="ellipse;whiteSpace=wrap;html=1;" vertex="1" parent="02UZKBBRo3uHq8SsgGu7-14">
          <mxGeometry x="190" y="63.67" width="114" height="60" as="geometry" />
        </mxCell>
        <mxCell id="02UZKBBRo3uHq8SsgGu7-47" value="&amp;lt;&amp;lt;extend&amp;gt;&amp;gt;" style="html=1;verticalAlign=bottom;labelBackgroundColor=none;endArrow=open;endFill=0;dashed=1;rounded=0;exitX=0;exitY=0.5;exitDx=0;exitDy=0;entryX=1;entryY=0.5;entryDx=0;entryDy=0;" edge="1" parent="02UZKBBRo3uHq8SsgGu7-14" source="02UZKBBRo3uHq8SsgGu7-19" target="02UZKBBRo3uHq8SsgGu7-17">
          <mxGeometry width="160" relative="1" as="geometry">
            <mxPoint x="60" y="-140" as="sourcePoint" />
            <mxPoint x="200" y="-170" as="targetPoint" />
          </mxGeometry>
        </mxCell>
        <mxCell id="02UZKBBRo3uHq8SsgGu7-26" value="" style="swimlane;startSize=0;" vertex="1" parent="1">
          <mxGeometry x="250" y="650" width="350" height="190" as="geometry" />
        </mxCell>
        <mxCell id="02UZKBBRo3uHq8SsgGu7-28" value="Мой словарь" style="text;html=1;align=center;verticalAlign=middle;resizable=0;points=[];autosize=1;strokeColor=none;fillColor=none;" vertex="1" parent="02UZKBBRo3uHq8SsgGu7-26">
          <mxGeometry x="250" width="100" height="30" as="geometry" />
        </mxCell>
        <mxCell id="02UZKBBRo3uHq8SsgGu7-30" value="Список добавленных слов" style="ellipse;whiteSpace=wrap;html=1;" vertex="1" parent="02UZKBBRo3uHq8SsgGu7-26">
          <mxGeometry x="130" y="20" width="90" height="60" as="geometry" />
        </mxCell>
        <mxCell id="02UZKBBRo3uHq8SsgGu7-29" value="Удалить слово" style="ellipse;whiteSpace=wrap;html=1;" vertex="1" parent="02UZKBBRo3uHq8SsgGu7-26">
          <mxGeometry x="40" y="130" width="75" height="50" as="geometry" />
        </mxCell>
        <mxCell id="02UZKBBRo3uHq8SsgGu7-18" value="Просмотр подробностей слова" style="ellipse;whiteSpace=wrap;html=1;" vertex="1" parent="02UZKBBRo3uHq8SsgGu7-26">
          <mxGeometry x="230" y="125" width="90.01" height="60" as="geometry" />
        </mxCell>
        <mxCell id="02UZKBBRo3uHq8SsgGu7-35" value="&amp;lt;&amp;lt;extend&amp;gt;&amp;gt;" style="html=1;verticalAlign=bottom;labelBackgroundColor=none;endArrow=open;endFill=0;dashed=1;rounded=0;exitX=1;exitY=0;exitDx=0;exitDy=0;entryX=0;entryY=1;entryDx=0;entryDy=0;" edge="1" parent="02UZKBBRo3uHq8SsgGu7-26" source="02UZKBBRo3uHq8SsgGu7-29" target="02UZKBBRo3uHq8SsgGu7-30">
          <mxGeometry width="160" relative="1" as="geometry">
            <mxPoint x="100" y="-50" as="sourcePoint" />
            <mxPoint x="260" y="-50" as="targetPoint" />
          </mxGeometry>
        </mxCell>
        <mxCell id="02UZKBBRo3uHq8SsgGu7-38" value="&amp;lt;&amp;lt;extend&amp;gt;&amp;gt;" style="html=1;verticalAlign=bottom;labelBackgroundColor=none;endArrow=open;endFill=0;dashed=1;rounded=0;exitX=0;exitY=0;exitDx=0;exitDy=0;entryX=1;entryY=1;entryDx=0;entryDy=0;" edge="1" parent="02UZKBBRo3uHq8SsgGu7-26" source="02UZKBBRo3uHq8SsgGu7-18" target="02UZKBBRo3uHq8SsgGu7-30">
          <mxGeometry width="160" relative="1" as="geometry">
            <mxPoint x="100" y="-50" as="sourcePoint" />
            <mxPoint x="260" y="-50" as="targetPoint" />
          </mxGeometry>
        </mxCell>
        <mxCell id="02UZKBBRo3uHq8SsgGu7-39" value="" style="endArrow=none;startArrow=none;endFill=0;startFill=0;endSize=8;html=1;verticalAlign=bottom;labelBackgroundColor=none;strokeWidth=3;rounded=0;entryX=0;entryY=1;entryDx=0;entryDy=0;" edge="1" parent="1" target="02UZKBBRo3uHq8SsgGu7-17">
          <mxGeometry width="160" relative="1" as="geometry">
            <mxPoint x="450" y="570" as="sourcePoint" />
            <mxPoint x="700" y="570" as="targetPoint" />
          </mxGeometry>
        </mxCell>
        <mxCell id="02UZKBBRo3uHq8SsgGu7-40" value="" style="endArrow=none;startArrow=none;endFill=0;startFill=0;endSize=8;html=1;verticalAlign=bottom;labelBackgroundColor=none;strokeWidth=3;rounded=0;entryX=0;entryY=1;entryDx=0;entryDy=0;" edge="1" parent="1" target="02UZKBBRo3uHq8SsgGu7-16">
          <mxGeometry width="160" relative="1" as="geometry">
            <mxPoint x="450" y="550" as="sourcePoint" />
            <mxPoint x="590" y="570" as="targetPoint" />
          </mxGeometry>
        </mxCell>
        <mxCell id="02UZKBBRo3uHq8SsgGu7-41" value="" style="endArrow=none;startArrow=none;endFill=0;startFill=0;endSize=8;html=1;verticalAlign=bottom;labelBackgroundColor=none;strokeWidth=3;rounded=0;entryX=0;entryY=0.5;entryDx=0;entryDy=0;" edge="1" parent="1" target="02UZKBBRo3uHq8SsgGu7-16">
          <mxGeometry width="160" relative="1" as="geometry">
            <mxPoint x="450" y="470" as="sourcePoint" />
            <mxPoint x="590" y="570" as="targetPoint" />
          </mxGeometry>
        </mxCell>
        <mxCell id="02UZKBBRo3uHq8SsgGu7-42" value="" style="endArrow=none;startArrow=none;endFill=0;startFill=0;endSize=8;html=1;verticalAlign=bottom;labelBackgroundColor=none;strokeWidth=3;rounded=0;exitX=1;exitY=0.5;exitDx=0;exitDy=0;" edge="1" parent="1" source="02UZKBBRo3uHq8SsgGu7-8">
          <mxGeometry width="160" relative="1" as="geometry">
            <mxPoint x="430" y="570" as="sourcePoint" />
            <mxPoint x="400" y="470" as="targetPoint" />
          </mxGeometry>
        </mxCell>
        <mxCell id="02UZKBBRo3uHq8SsgGu7-43" value="" style="endArrow=none;startArrow=none;endFill=0;startFill=0;endSize=8;html=1;verticalAlign=bottom;labelBackgroundColor=none;strokeWidth=3;rounded=0;exitX=1;exitY=0.5;exitDx=0;exitDy=0;" edge="1" parent="1" source="02UZKBBRo3uHq8SsgGu7-7">
          <mxGeometry width="160" relative="1" as="geometry">
            <mxPoint x="430" y="570" as="sourcePoint" />
            <mxPoint x="400" y="560" as="targetPoint" />
          </mxGeometry>
        </mxCell>
        <mxCell id="02UZKBBRo3uHq8SsgGu7-44" value="" style="endArrow=none;startArrow=none;endFill=0;startFill=0;endSize=8;html=1;verticalAlign=bottom;labelBackgroundColor=none;strokeWidth=3;rounded=0;exitX=1;exitY=0.5;exitDx=0;exitDy=0;" edge="1" parent="1" source="02UZKBBRo3uHq8SsgGu7-6">
          <mxGeometry width="160" relative="1" as="geometry">
            <mxPoint x="430" y="570" as="sourcePoint" />
            <mxPoint x="400" y="580" as="targetPoint" />
          </mxGeometry>
        </mxCell>
        <mxCell id="02UZKBBRo3uHq8SsgGu7-46" value="" style="endArrow=none;startArrow=none;endFill=0;startFill=0;endSize=8;html=1;verticalAlign=bottom;labelBackgroundColor=none;strokeWidth=3;rounded=0;exitX=0.5;exitY=0;exitDx=0;exitDy=0;" edge="1" parent="1" source="02UZKBBRo3uHq8SsgGu7-30">
          <mxGeometry width="160" relative="1" as="geometry">
            <mxPoint x="370" y="560" as="sourcePoint" />
            <mxPoint x="425" y="610" as="targetPoint" />
          </mxGeometry>
        </mxCell>
      </root>
    </mxGraphModel>
  </diagram>
</mxfile>
